<?xml version="1.0" encoding="UTF-8"?>
<svg id="Calque_1" data-name="Calque 1" xmlns="http://www.w3.org/2000/svg" viewBox="0 0 465.77 97.17">
  <defs>
    <style>
      .cls-1 {
        fill: #fff;
        stroke-width: 0px;
      }
    </style>
  </defs>
  <path class="cls-1" d="m32.66,15.46c-4.31,0-7.72,1-10.23,2.99-2.51,2-3.77,4.74-3.77,8.23s1.57,6.26,4.73,8.54c3.15,2.29,7.55,4.55,13.22,6.8,4.31,1.58,7.99,3.39,11.06,5.43s5.6,4.8,7.6,8.3c1.99,3.49,2.99,7.9,2.99,13.22,0,4.82-1.16,9.19-3.47,13.1-2.31,3.91-5.66,7.03-10.05,9.36s-9.57,3.49-15.55,3.49c-5.26,0-10.45-.85-15.55-2.56-5.1-1.7-9.65-4.05-13.64-7.05l6.22-11.35c2.95,2.33,6.44,4.26,10.47,5.8,4.03,1.54,7.75,2.31,11.18,2.31,4.23,0,7.93-1.06,11.12-3.18s4.78-5.38,4.78-9.79c0-3.49-1.34-6.4-4.01-8.73-2.67-2.33-6.4-4.45-11.18-6.36-4.95-1.91-9.05-3.8-12.32-5.68-3.27-1.87-6.08-4.49-8.43-7.86-2.35-3.37-3.53-7.59-3.53-12.66,0-7.4,2.41-13.37,7.24-17.9,4.82-4.53,11.18-6.96,19.08-7.3,5.74,0,10.78.69,15.13,2.06,4.35,1.37,8.39,3.31,12.14,5.8l-5.26,11.1c-7.5-4.07-14.16-6.11-19.98-6.11h0Z"/>
  <path class="cls-1" d="m134.33,3.11v13.97h-43.78v24.2h38.99v13.97h-38.99v24.7h45.45v13.97h-59.45V3.11h57.78Z"/>
  <path class="cls-1" d="m232.17,3.11v94.06h-.36l-62.8-63.5.36,60.25h-14.11V0h.72l62.56,64.24-.24-61.13h13.88,0Z"/>
  <path class="cls-1" d="m281.93,15.46c-4.31,0-7.71,1-10.23,2.99-2.51,2-3.77,4.74-3.77,8.23s1.57,6.26,4.72,8.54c3.15,2.29,7.55,4.55,13.22,6.8,4.31,1.58,7.99,3.39,11.06,5.43s5.6,4.8,7.6,8.3c1.99,3.49,2.99,7.9,2.99,13.22,0,4.82-1.16,9.19-3.47,13.1-2.31,3.91-5.66,7.03-10.05,9.36-4.39,2.33-9.57,3.49-15.55,3.49-5.26,0-10.45-.85-15.55-2.56-5.1-1.7-9.65-4.05-13.64-7.05l6.22-11.35c2.95,2.33,6.44,4.26,10.47,5.8s7.75,2.31,11.18,2.31c4.23,0,7.93-1.06,11.12-3.18s4.78-5.38,4.78-9.79c0-3.49-1.34-6.4-4.01-8.73-2.67-2.33-6.4-4.45-11.18-6.36-4.95-1.91-9.05-3.8-12.32-5.68-3.27-1.87-6.08-4.49-8.43-7.86-2.35-3.37-3.53-7.59-3.53-12.66,0-7.4,2.41-13.37,7.24-17.9,4.82-4.53,11.18-6.96,19.08-7.3,5.74,0,10.78.69,15.13,2.06,4.35,1.37,8.39,3.31,12.14,5.8l-5.26,11.1c-7.5-4.07-14.16-6.11-19.98-6.11h.02Z"/>
  <path class="cls-1" d="m341.02,70.98c1.75,2.99,4.15,5.39,7.18,7.17,3.03,1.79,6.34,2.68,9.93,2.68s7.16-.87,10.23-2.62,5.48-4.12,7.24-7.11c1.75-2.99,2.63-6.28,2.63-9.85V3.11h13.76v58.51c0,6.49-1.5,12.25-4.49,17.28s-7.08,8.96-12.26,11.79c-5.18,2.83-10.88,4.24-17.1,4.24s-11.9-1.41-17.04-4.24c-5.14-2.83-9.19-6.76-12.14-11.79s-4.43-10.79-4.43-17.28V3.11h13.88v58.13c0,3.49.88,6.74,2.63,9.73h-.02Z"/>
  <path class="cls-1" d="m440.18,15.46c-4.31,0-7.71,1-10.23,2.99-2.51,2-3.77,4.74-3.77,8.23s1.57,6.26,4.72,8.54c3.15,2.29,7.55,4.55,13.22,6.8,4.31,1.58,7.99,3.39,11.06,5.43s5.6,4.8,7.6,8.3c1.99,3.49,2.99,7.9,2.99,13.22,0,4.82-1.16,9.19-3.47,13.1-2.31,3.91-5.66,7.03-10.05,9.36-4.39,2.33-9.57,3.49-15.55,3.49-5.26,0-10.45-.85-15.55-2.56-5.1-1.7-9.65-4.05-13.64-7.05l6.22-11.35c2.95,2.33,6.44,4.26,10.47,5.8s7.75,2.31,11.18,2.31c4.23,0,7.93-1.06,11.12-3.18s4.78-5.38,4.78-9.79c0-3.49-1.34-6.4-4.01-8.73-2.67-2.33-6.4-4.45-11.18-6.36-4.95-1.91-9.05-3.8-12.32-5.68-3.27-1.87-6.08-4.49-8.43-7.86-2.35-3.37-3.53-7.59-3.53-12.66,0-7.4,2.41-13.37,7.24-17.9,4.82-4.53,11.18-6.96,19.08-7.3,5.74,0,10.78.69,15.13,2.06,4.35,1.37,8.39,3.31,12.14,5.8l-5.26,11.1c-7.5-4.07-14.16-6.11-19.98-6.11h.02Z"/>
</svg>