<?xml version="1.0" encoding="UTF-8"?>
<svg id="Calque_1" data-name="Calque 1" xmlns="http://www.w3.org/2000/svg" viewBox="0 0 482.55 572.68">
  <defs>
    <style>
      .cls-1 {
        stroke: #66906f;
      }

      .cls-1, .cls-2, .cls-3 {
        fill: none;
        stroke-linecap: round;
        stroke-linejoin: round;
        stroke-width: 10.83px;
      }

      .cls-2 {
        stroke: #5181c2;
      }

      .cls-3 {
        stroke: #4d4e9c;
      }

      .cls-4 {
        fill: #fff;
        stroke-width: 0px;
      }
    </style>
  </defs>
  <g>
    <path class="cls-4" d="m43.1,29.31c-4.31,0-7.72,1-10.23,2.99-2.51,2-3.77,4.74-3.77,8.23s1.57,6.26,4.73,8.54c3.15,2.29,7.55,4.55,13.22,6.8,4.31,1.58,7.99,3.39,11.06,5.43,3.07,2.04,5.6,4.8,7.6,8.3,1.99,3.49,2.99,7.9,2.99,13.22,0,4.82-1.16,9.19-3.47,13.1-2.31,3.91-5.66,7.03-10.05,9.36-4.39,2.33-9.57,3.49-15.55,3.49-5.26,0-10.45-.85-15.55-2.56-5.1-1.7-9.65-4.05-13.64-7.05l6.22-11.35c2.95,2.33,6.44,4.26,10.47,5.8,4.03,1.54,7.75,2.31,11.18,2.31,4.23,0,7.93-1.06,11.12-3.18,3.19-2.12,4.78-5.38,4.78-9.79,0-3.49-1.34-6.4-4.01-8.73-2.67-2.33-6.4-4.45-11.18-6.36-4.95-1.91-9.05-3.8-12.32-5.68-3.27-1.87-6.08-4.49-8.43-7.86-2.35-3.37-3.53-7.59-3.53-12.66,0-7.4,2.41-13.37,7.24-17.9,4.82-4.53,11.18-6.96,19.08-7.3,5.74,0,10.78.69,15.13,2.06,4.35,1.37,8.39,3.31,12.14,5.8l-5.26,11.1c-7.5-4.07-14.16-6.11-19.98-6.11Z"/>
    <path class="cls-4" d="m144.77,16.96v13.97h-43.78v24.2h38.99v13.97h-38.99v24.7h45.45v13.97h-59.45V16.96h57.77Z"/>
    <path class="cls-4" d="m242.61,16.96v94.06h-.36l-62.8-63.5.36,60.25h-14.11V13.85h.72l62.56,64.24-.24-61.13h13.88Z"/>
    <path class="cls-4" d="m292.37,29.31c-4.31,0-7.71,1-10.23,2.99-2.51,2-3.77,4.74-3.77,8.23s1.57,6.26,4.72,8.54c3.15,2.29,7.55,4.55,13.22,6.8,4.31,1.58,7.99,3.39,11.06,5.43,3.07,2.04,5.6,4.8,7.6,8.3,1.99,3.49,2.99,7.9,2.99,13.22,0,4.82-1.16,9.19-3.47,13.1-2.31,3.91-5.66,7.03-10.05,9.36-4.39,2.33-9.57,3.49-15.55,3.49-5.26,0-10.45-.85-15.55-2.56-5.1-1.7-9.65-4.05-13.64-7.05l6.22-11.35c2.95,2.33,6.44,4.26,10.47,5.8,4.03,1.54,7.75,2.31,11.18,2.31,4.23,0,7.93-1.06,11.12-3.18,3.19-2.12,4.78-5.38,4.78-9.79,0-3.49-1.34-6.4-4.01-8.73-2.67-2.33-6.4-4.45-11.18-6.36-4.95-1.91-9.05-3.8-12.32-5.68-3.27-1.87-6.08-4.49-8.43-7.86-2.35-3.37-3.53-7.59-3.53-12.66,0-7.4,2.41-13.37,7.24-17.9,4.82-4.53,11.18-6.96,19.08-7.3,5.74,0,10.78.69,15.13,2.06,4.35,1.37,8.39,3.31,12.14,5.8l-5.26,11.1c-7.5-4.07-14.16-6.11-19.98-6.11Z"/>
    <path class="cls-4" d="m351.46,84.83c1.75,2.99,4.15,5.39,7.18,7.17,3.03,1.79,6.34,2.68,9.93,2.68s7.16-.87,10.23-2.62c3.07-1.75,5.48-4.12,7.24-7.11,1.75-2.99,2.63-6.28,2.63-9.85V16.96h13.76v58.51c0,6.49-1.5,12.25-4.49,17.28-2.99,5.03-7.08,8.96-12.26,11.79-5.18,2.83-10.88,4.24-17.1,4.24s-11.9-1.41-17.04-4.24c-5.14-2.83-9.19-6.76-12.14-11.79-2.95-5.03-4.43-10.79-4.43-17.28V16.96h13.88v58.13c0,3.49.88,6.74,2.63,9.73Z"/>
    <path class="cls-4" d="m450.62,29.31c-4.31,0-7.71,1-10.23,2.99-2.51,2-3.77,4.74-3.77,8.23s1.57,6.26,4.72,8.54c3.15,2.29,7.55,4.55,13.22,6.8,4.31,1.58,7.99,3.39,11.06,5.43,3.07,2.04,5.6,4.8,7.6,8.3,1.99,3.49,2.99,7.9,2.99,13.22,0,4.82-1.16,9.19-3.47,13.1-2.31,3.91-5.66,7.03-10.05,9.36-4.39,2.33-9.57,3.49-15.55,3.49-5.26,0-10.45-.85-15.55-2.56-5.1-1.7-9.65-4.05-13.64-7.05l6.22-11.35c2.95,2.33,6.44,4.26,10.47,5.8,4.03,1.54,7.75,2.31,11.18,2.31,4.23,0,7.93-1.06,11.12-3.18,3.19-2.12,4.78-5.38,4.78-9.79,0-3.49-1.34-6.4-4.01-8.73-2.67-2.33-6.4-4.45-11.18-6.36-4.95-1.91-9.05-3.8-12.32-5.68-3.27-1.87-6.08-4.49-8.43-7.86-2.35-3.37-3.53-7.59-3.53-12.66,0-7.4,2.41-13.37,7.24-17.9,4.82-4.53,11.18-6.96,19.08-7.3,5.74,0,10.78.69,15.13,2.06,4.35,1.37,8.39,3.31,12.14,5.8l-5.26,11.1c-7.5-4.07-14.16-6.11-19.98-6.11Z"/>
  </g>
  <polyline class="cls-2" points="218.81 229.98 178.66 403.78 268.04 403.78"/>
  <path class="cls-1" d="m140.25,279.07s-50.58-19.74-35.16-43.18c15.42-23.44,50.58-13.57,50.58-13.57,0,0,18.84-1.85,22.99-21.59s-67.4-63.54-106.27-9.25c-38.86,54.28,9.87,88.21,15.42,95,5.55,6.79,12.34,12.95,8.02,26.53-4.32,13.57-6.17,33.93,6.79,38.86,12.95,4.93,27.14-8.64,27.14-8.64"/>
  <path class="cls-2" d="m5.42,487.06s25.29,51.82,71.56,49.97c46.26-1.85,77.72-43.18,77.72-43.18,0,0-51.2,4.93-78.34,3.7-18.39-.84-44.43-5.35-59.31-8.18-7.08-1.34-11.63-2.31-11.63-2.31Z"/>
  <path class="cls-2" d="m80.06,459.3s14.8-9.87,22.82-6.17c8.02,3.7,11.72,20.97,21.59,26.53,9.87,5.55,30.23,14.19,30.23,14.19"/>
  <path class="cls-2" d="m80.06,459.3s-14.8-9.87-22.82-6.17c-8.02,3.7-11.72,20.97-21.59,26.53-9.87,5.55-30.23,7.4-30.23,7.4"/>
  <path class="cls-3" d="m259.24,301.59s37.76,56.31,97.39,57.64c59.63,1.33,94.74-57.64,94.74-57.64,0,0-33.13-56.31-96.07-56.98-62.94-.66-96.07,56.98-96.07,56.98Z"/>
  <line class="cls-3" x1="288.39" y1="234.01" x2="259.24" y2="204.86"/>
  <line class="cls-3" x1="355.3" y1="214.8" x2="355.3" y2="173.72"/>
  <line class="cls-3" x1="422.22" y1="234.01" x2="454.02" y2="204.86"/>
  <path class="cls-1" d="m320.19,564.61l2.65-123.31s0-37.53,32.46-37.53c34.45,0,37.76,37.53,37.76,37.53v125.96"/>
  <path class="cls-3" d="m5.42,297.95s35.62-1.13,46.93,24.88c11.31,26.01-7.92,54.84-7.92,54.84"/>
  <path class="cls-3" d="m8.81,326.21s16.4.16,19.22,11.95-6.15,26.49-6.15,26.49"/>
  <path class="cls-3" d="m202.99,432.22s-17.94,31.1-5.98,41.87c11.96,10.77,23.93,27.51,14.36,39.48"/>
  <path class="cls-3" d="m240.42,432.22s-17.94,31.1-5.98,41.87c11.96,10.77,23.93,27.51,14.36,39.48"/>
  <path class="cls-3" d="m302.4,259.11s.98,59.05,52.9,57.77,61.52-51.55,61.52-51.55"/>
  <polyline class="cls-2" points="454.02 394.21 432.97 432.22 454.02 452.3 432.97 487.06 451.37 513.57 432.97 541.84"/>
</svg>