<svg xmlns="http://www.w3.org/2000/svg" xmlns:xlink="http://www.w3.org/1999/xlink" width="500" zoomAndPan="magnify" viewBox="0 0 375 374.999991" height="500" preserveAspectRatio="xMidYMid meet" version="1.0"><defs><g/></defs><g fill="#001f3f" fill-opacity="1"><g transform="translate(44.002934, 221.45316)"><g><path d="M 40.027344 -14.617188 C 40.027344 -6.746094 34.515625 -1.347656 25.074219 -1.347656 C 14.839844 -1.347656 8.09375 -7.644531 4.835938 -15.179688 L 2.8125 -15.179688 L 3.710938 0 L 6.070312 0 C 6.632812 -1.800781 8.09375 -2.699219 9.667969 -2.699219 C 12.480469 -2.699219 17.089844 1.347656 25.632812 1.347656 C 37.328125 1.347656 47.894531 -6.183594 47.894531 -17.652344 C 47.894531 -31.257812 33.953125 -36.089844 24.398438 -40.589844 C 15.289062 -44.859375 10.117188 -49.246094 10.117188 -56.554688 C 10.117188 -63.972656 15.289062 -69.035156 23.5 -69.035156 C 30.917969 -69.035156 36.429688 -65.097656 40.25 -56.664062 L 42.5 -56.664062 L 41.824219 -70.71875 L 39.6875 -70.71875 C 39.125 -69.144531 38.339844 -69.144531 37.214844 -69.144531 C 34.628906 -69.144531 31.929688 -71.621094 24.171875 -71.621094 C 10.117188 -71.621094 3.261719 -63.636719 3.261719 -54.078125 C 3.261719 -43.285156 12.03125 -36.765625 22.9375 -31.929688 C 30.804688 -28.558594 40.027344 -24.734375 40.027344 -14.617188 Z M 40.027344 -14.617188 "/></g></g></g><g fill="#001f3f" fill-opacity="1"><g transform="translate(87.962697, 221.45316)"><g><path d="M 18.550781 -28.78125 L 22.035156 -29.34375 C 47.445312 -33.28125 55.09375 -42.273438 55.09375 -52.394531 C 55.09375 -59.925781 51.269531 -69.820312 29.570312 -69.820312 C 22.488281 -69.820312 12.03125 -69.371094 2.8125 -69.820312 L 2.8125 -68.132812 C 9.21875 -67.460938 10.457031 -63.972656 10.457031 -61.050781 L 10.457031 -7.308594 C 10.457031 -3.371094 8.542969 -2.136719 2.8125 -1.6875 L 2.8125 0 C 10.570312 -0.335938 18.4375 -0.335938 26.195312 0 L 26.195312 -1.6875 C 20.460938 -2.136719 18.550781 -3.371094 18.550781 -7.308594 Z M 18.550781 -31.144531 L 18.550781 -67.460938 L 30.019531 -67.460938 C 41.261719 -67.460938 46.097656 -61.164062 46.097656 -51.945312 C 46.097656 -42.5 41.261719 -34.742188 22.710938 -31.820312 Z M 18.550781 -31.144531 "/></g></g></g><path stroke-linecap="butt" transform="matrix(0.75, 0, 0, 0.75, 169.497241, 152.307777)" fill="none" stroke-linejoin="miter" d="M -0.00152909 1.001089 L 215.331818 1.001089 " stroke="#001f3f" stroke-width="2" stroke-opacity="1" stroke-miterlimit="4"/><g fill="#001f3f" fill-opacity="1"><g transform="translate(194.840075, 182.406564)"><g><path d="M 4.421875 0.09375 C 3.671875 0.09375 2.953125 -0.0234375 2.265625 -0.265625 C 1.578125 -0.515625 1.046875 -0.832031 0.671875 -1.21875 L 1.09375 -2.046875 C 1.457031 -1.679688 1.941406 -1.382812 2.546875 -1.15625 C 3.160156 -0.9375 3.785156 -0.828125 4.421875 -0.828125 C 5.328125 -0.828125 6.003906 -0.988281 6.453125 -1.3125 C 6.910156 -1.644531 7.140625 -2.078125 7.140625 -2.609375 C 7.140625 -3.015625 7.015625 -3.335938 6.765625 -3.578125 C 6.523438 -3.816406 6.226562 -4 5.875 -4.125 C 5.519531 -4.257812 5.023438 -4.40625 4.390625 -4.5625 C 3.628906 -4.75 3.019531 -4.929688 2.5625 -5.109375 C 2.113281 -5.285156 1.726562 -5.554688 1.40625 -5.921875 C 1.082031 -6.285156 0.921875 -6.78125 0.921875 -7.40625 C 0.921875 -7.914062 1.054688 -8.378906 1.328125 -8.796875 C 1.597656 -9.222656 2.007812 -9.5625 2.5625 -9.8125 C 3.125 -10.0625 3.816406 -10.1875 4.640625 -10.1875 C 5.222656 -10.1875 5.789062 -10.101562 6.34375 -9.9375 C 6.894531 -9.78125 7.367188 -9.5625 7.765625 -9.28125 L 7.40625 -8.4375 C 6.988281 -8.71875 6.539062 -8.925781 6.0625 -9.0625 C 5.582031 -9.195312 5.109375 -9.265625 4.640625 -9.265625 C 3.753906 -9.265625 3.085938 -9.09375 2.640625 -8.75 C 2.191406 -8.414062 1.96875 -7.976562 1.96875 -7.4375 C 1.96875 -7.039062 2.09375 -6.71875 2.34375 -6.46875 C 2.59375 -6.21875 2.898438 -6.03125 3.265625 -5.90625 C 3.640625 -5.78125 4.140625 -5.640625 4.765625 -5.484375 C 5.503906 -5.296875 6.097656 -5.113281 6.546875 -4.9375 C 7.003906 -4.757812 7.390625 -4.488281 7.703125 -4.125 C 8.023438 -3.769531 8.1875 -3.285156 8.1875 -2.671875 C 8.1875 -2.160156 8.050781 -1.695312 7.78125 -1.28125 C 7.507812 -0.863281 7.085938 -0.53125 6.515625 -0.28125 C 5.953125 -0.03125 5.253906 0.09375 4.421875 0.09375 Z M 4.421875 0.09375 "/></g></g></g><g fill="#001f3f" fill-opacity="1"><g transform="translate(211.635663, 182.406564)"><g><path d="M 6.0625 0.09375 C 5.0625 0.09375 4.15625 -0.128906 3.34375 -0.578125 C 2.53125 -1.023438 1.894531 -1.640625 1.4375 -2.421875 C 0.976562 -3.203125 0.75 -4.078125 0.75 -5.046875 C 0.75 -6.015625 0.976562 -6.890625 1.4375 -7.671875 C 1.894531 -8.453125 2.53125 -9.066406 3.34375 -9.515625 C 4.15625 -9.960938 5.0625 -10.1875 6.0625 -10.1875 C 7.0625 -10.1875 7.960938 -9.960938 8.765625 -9.515625 C 9.566406 -9.078125 10.195312 -8.460938 10.65625 -7.671875 C 11.113281 -6.890625 11.34375 -6.015625 11.34375 -5.046875 C 11.34375 -4.078125 11.113281 -3.195312 10.65625 -2.40625 C 10.195312 -1.625 9.566406 -1.007812 8.765625 -0.5625 C 7.960938 -0.125 7.0625 0.09375 6.0625 0.09375 Z M 6.0625 -0.859375 C 6.851562 -0.859375 7.570312 -1.039062 8.21875 -1.40625 C 8.863281 -1.769531 9.367188 -2.269531 9.734375 -2.90625 C 10.097656 -3.539062 10.28125 -4.253906 10.28125 -5.046875 C 10.28125 -5.835938 10.097656 -6.550781 9.734375 -7.1875 C 9.367188 -7.820312 8.863281 -8.320312 8.21875 -8.6875 C 7.570312 -9.050781 6.851562 -9.234375 6.0625 -9.234375 C 5.257812 -9.234375 4.53125 -9.050781 3.875 -8.6875 C 3.226562 -8.320312 2.71875 -7.820312 2.34375 -7.1875 C 1.976562 -6.550781 1.796875 -5.835938 1.796875 -5.046875 C 1.796875 -4.253906 1.976562 -3.539062 2.34375 -2.90625 C 2.71875 -2.269531 3.226562 -1.769531 3.875 -1.40625 C 4.53125 -1.039062 5.257812 -0.859375 6.0625 -0.859375 Z M 6.0625 -0.859375 "/></g></g></g><g fill="#001f3f" fill-opacity="1"><g transform="translate(231.659996, 182.406564)"><g><path d="M 6.0625 0.09375 C 5.0625 0.09375 4.15625 -0.128906 3.34375 -0.578125 C 2.53125 -1.023438 1.894531 -1.640625 1.4375 -2.421875 C 0.976562 -3.203125 0.75 -4.078125 0.75 -5.046875 C 0.75 -6.015625 0.976562 -6.890625 1.4375 -7.671875 C 1.894531 -8.453125 2.53125 -9.066406 3.34375 -9.515625 C 4.15625 -9.960938 5.0625 -10.1875 6.0625 -10.1875 C 7.0625 -10.1875 7.960938 -9.960938 8.765625 -9.515625 C 9.566406 -9.078125 10.195312 -8.460938 10.65625 -7.671875 C 11.113281 -6.890625 11.34375 -6.015625 11.34375 -5.046875 C 11.34375 -4.078125 11.113281 -3.195312 10.65625 -2.40625 C 10.195312 -1.625 9.566406 -1.007812 8.765625 -0.5625 C 7.960938 -0.125 7.0625 0.09375 6.0625 0.09375 Z M 6.0625 -0.859375 C 6.851562 -0.859375 7.570312 -1.039062 8.21875 -1.40625 C 8.863281 -1.769531 9.367188 -2.269531 9.734375 -2.90625 C 10.097656 -3.539062 10.28125 -4.253906 10.28125 -5.046875 C 10.28125 -5.835938 10.097656 -6.550781 9.734375 -7.1875 C 9.367188 -7.820312 8.863281 -8.320312 8.21875 -8.6875 C 7.570312 -9.050781 6.851562 -9.234375 6.0625 -9.234375 C 5.257812 -9.234375 4.53125 -9.050781 3.875 -8.6875 C 3.226562 -8.320312 2.71875 -7.820312 2.34375 -7.1875 C 1.976562 -6.550781 1.796875 -5.835938 1.796875 -5.046875 C 1.796875 -4.253906 1.976562 -3.539062 2.34375 -2.90625 C 2.71875 -2.269531 3.226562 -1.769531 3.875 -1.40625 C 4.53125 -1.039062 5.257812 -0.859375 6.0625 -0.859375 Z M 6.0625 -0.859375 "/></g></g></g><g fill="#001f3f" fill-opacity="1"><g transform="translate(251.684328, 182.406564)"><g><path d="M 5.421875 -10.09375 C 6.710938 -10.09375 7.722656 -9.785156 8.453125 -9.171875 C 9.179688 -8.554688 9.546875 -7.710938 9.546875 -6.640625 C 9.546875 -5.554688 9.179688 -4.707031 8.453125 -4.09375 C 7.722656 -3.488281 6.710938 -3.1875 5.421875 -3.1875 L 2.71875 -3.1875 L 2.71875 0 L 1.640625 0 L 1.640625 -10.09375 Z M 5.390625 -4.125 C 6.390625 -4.125 7.15625 -4.34375 7.6875 -4.78125 C 8.21875 -5.21875 8.484375 -5.835938 8.484375 -6.640625 C 8.484375 -7.453125 8.21875 -8.078125 7.6875 -8.515625 C 7.15625 -8.953125 6.390625 -9.171875 5.390625 -9.171875 L 2.71875 -9.171875 L 2.71875 -4.125 Z M 5.390625 -4.125 "/></g></g></g><g fill="#001f3f" fill-opacity="1"><g transform="translate(194.840075, 203.406563)"><g><path d="M 1.640625 -10.09375 L 5.75 -10.09375 C 6.820312 -10.09375 7.765625 -9.878906 8.578125 -9.453125 C 9.398438 -9.023438 10.035156 -8.425781 10.484375 -7.65625 C 10.929688 -6.894531 11.15625 -6.023438 11.15625 -5.046875 C 11.15625 -4.066406 10.929688 -3.191406 10.484375 -2.421875 C 10.035156 -1.660156 9.398438 -1.066406 8.578125 -0.640625 C 7.765625 -0.210938 6.820312 0 5.75 0 L 1.640625 0 Z M 5.703125 -0.921875 C 6.585938 -0.921875 7.359375 -1.09375 8.015625 -1.4375 C 8.679688 -1.789062 9.195312 -2.28125 9.5625 -2.90625 C 9.925781 -3.53125 10.109375 -4.242188 10.109375 -5.046875 C 10.109375 -5.859375 9.925781 -6.570312 9.5625 -7.1875 C 9.195312 -7.8125 8.679688 -8.296875 8.015625 -8.640625 C 7.359375 -8.992188 6.585938 -9.171875 5.703125 -9.171875 L 2.71875 -9.171875 L 2.71875 -0.921875 Z M 5.703125 -0.921875 "/></g></g></g><g fill="#001f3f" fill-opacity="1"><g transform="translate(214.677022, 203.406563)"><g><path d="M 8.78125 -0.921875 L 8.78125 0 L 1.640625 0 L 1.640625 -10.09375 L 8.5625 -10.09375 L 8.5625 -9.171875 L 2.71875 -9.171875 L 2.71875 -5.578125 L 7.9375 -5.578125 L 7.9375 -4.671875 L 2.71875 -4.671875 L 2.71875 -0.921875 Z M 8.78125 -0.921875 "/></g></g></g><g fill="#001f3f" fill-opacity="1"><g transform="translate(232.250969, 203.406563)"><g><path d="M 10.03125 -10.09375 L 5.5625 0 L 4.515625 0 L 0.046875 -10.09375 L 1.203125 -10.09375 L 5.0625 -1.328125 L 8.953125 -10.09375 Z M 10.03125 -10.09375 "/></g></g></g><path stroke-linecap="butt" transform="matrix(0.75, 0, 0, 0.75, 169.497241, 222.447319)" fill="none" stroke-linejoin="miter" d="M -0.00152909 1.002533 L 215.331818 1.002533 " stroke="#001f3f" stroke-width="2" stroke-opacity="1" stroke-miterlimit="4"/></svg>