<svg xmlns="http://www.w3.org/2000/svg" xmlns:xlink="http://www.w3.org/1999/xlink" width="500" zoomAndPan="magnify" viewBox="0 0 375 374.999991" height="500" preserveAspectRatio="xMidYMid meet" version="1.0"><defs><g/></defs><g fill="#dec2ba" fill-opacity="1"><g transform="translate(3.88666, 237.390678)"><g><path d="M 51.03125 -18.636719 C 51.03125 -8.601562 44.007812 -1.71875 31.964844 -1.71875 C 18.921875 -1.71875 10.320312 -9.746094 6.164062 -19.351562 L 3.582031 -19.351562 L 4.730469 0 L 7.742188 0 C 8.457031 -2.292969 10.320312 -3.441406 12.328125 -3.441406 C 15.910156 -3.441406 21.789062 1.71875 32.683594 1.71875 C 47.589844 1.71875 61.066406 -7.882812 61.066406 -22.503906 C 61.066406 -39.851562 43.289062 -46.015625 31.105469 -51.746094 C 19.496094 -57.195312 12.902344 -62.785156 12.902344 -72.101562 C 12.902344 -81.5625 19.496094 -88.015625 29.960938 -88.015625 C 39.421875 -88.015625 46.445312 -82.996094 51.316406 -72.246094 L 54.183594 -72.246094 L 53.324219 -90.164062 L 50.601562 -90.164062 C 49.882812 -88.15625 48.882812 -88.15625 47.449219 -88.15625 C 44.152344 -88.15625 40.710938 -91.3125 30.820312 -91.3125 C 12.902344 -91.3125 4.15625 -81.132812 4.15625 -68.949219 C 4.15625 -55.1875 15.339844 -46.875 29.242188 -40.710938 C 39.277344 -36.410156 51.03125 -31.535156 51.03125 -18.636719 Z M 51.03125 -18.636719 "/></g></g></g><g fill="#dec2ba" fill-opacity="1"><g transform="translate(59.933376, 237.390678)"><g><path d="M 23.652344 -36.695312 L 28.097656 -37.414062 C 60.492188 -42.429688 70.238281 -53.898438 70.238281 -66.800781 C 70.238281 -76.402344 65.367188 -89.019531 37.699219 -89.019531 C 28.667969 -89.019531 15.339844 -88.445312 3.582031 -89.019531 L 3.582031 -86.867188 C 11.753906 -86.007812 13.332031 -81.5625 13.332031 -77.835938 L 13.332031 -9.316406 C 13.332031 -4.300781 10.894531 -2.722656 3.582031 -2.148438 L 3.582031 0 C 13.472656 -0.429688 23.507812 -0.429688 33.398438 0 L 33.398438 -2.148438 C 26.089844 -2.722656 23.652344 -4.300781 23.652344 -9.316406 Z M 23.652344 -39.707031 L 23.652344 -86.007812 L 38.273438 -86.007812 C 52.609375 -86.007812 58.773438 -77.980469 58.773438 -66.226562 C 58.773438 -54.183594 52.609375 -44.292969 28.957031 -40.566406 Z M 23.652344 -39.707031 "/></g></g></g><path stroke-linecap="butt" transform="matrix(0.75, 0, 0, 0.75, 163.886228, 149.064657)" fill="none" stroke-linejoin="miter" d="M 0.000654149 1.502332 L 274.542339 1.502332 " stroke="#dec2ba" stroke-width="3" stroke-opacity="1" stroke-miterlimit="4"/><path stroke-linecap="butt" transform="matrix(0.75, 0, 0, 0.75, 160.981883, 236.018905)" fill="none" stroke-linejoin="miter" d="M -0.00188531 1.500835 L 278.4148 1.500835 " stroke="#dec2ba" stroke-width="3" stroke-opacity="1" stroke-miterlimit="4"/><g fill="#231f20" fill-opacity="1"><g transform="translate(196.197208, 187.608042)"><g><path d="M 5.640625 0.109375 C 4.679688 0.109375 3.765625 -0.0390625 2.890625 -0.34375 C 2.015625 -0.65625 1.335938 -1.0625 0.859375 -1.5625 L 1.390625 -2.609375 C 1.859375 -2.140625 2.476562 -1.757812 3.25 -1.46875 C 4.019531 -1.1875 4.816406 -1.046875 5.640625 -1.046875 C 6.796875 -1.046875 7.660156 -1.253906 8.234375 -1.671875 C 8.804688 -2.097656 9.09375 -2.648438 9.09375 -3.328125 C 9.09375 -3.835938 8.9375 -4.242188 8.625 -4.546875 C 8.3125 -4.859375 7.925781 -5.097656 7.46875 -5.265625 C 7.019531 -5.429688 6.394531 -5.613281 5.59375 -5.8125 C 4.625 -6.050781 3.847656 -6.285156 3.265625 -6.515625 C 2.691406 -6.742188 2.195312 -7.085938 1.78125 -7.546875 C 1.375 -8.015625 1.171875 -8.644531 1.171875 -9.4375 C 1.171875 -10.09375 1.34375 -10.6875 1.6875 -11.21875 C 2.03125 -11.75 2.554688 -12.171875 3.265625 -12.484375 C 3.984375 -12.804688 4.867188 -12.96875 5.921875 -12.96875 C 6.648438 -12.96875 7.363281 -12.863281 8.0625 -12.65625 C 8.769531 -12.457031 9.382812 -12.179688 9.90625 -11.828125 L 9.4375 -10.75 C 8.90625 -11.101562 8.332031 -11.367188 7.71875 -11.546875 C 7.101562 -11.722656 6.503906 -11.8125 5.921875 -11.8125 C 4.785156 -11.8125 3.929688 -11.59375 3.359375 -11.15625 C 2.796875 -10.726562 2.515625 -10.171875 2.515625 -9.484375 C 2.515625 -8.960938 2.671875 -8.546875 2.984375 -8.234375 C 3.296875 -7.921875 3.6875 -7.679688 4.15625 -7.515625 C 4.632812 -7.359375 5.269531 -7.179688 6.0625 -6.984375 C 7.007812 -6.753906 7.769531 -6.523438 8.34375 -6.296875 C 8.925781 -6.066406 9.421875 -5.722656 9.828125 -5.265625 C 10.234375 -4.804688 10.4375 -4.1875 10.4375 -3.40625 C 10.4375 -2.75 10.257812 -2.15625 9.90625 -1.625 C 9.5625 -1.09375 9.023438 -0.671875 8.296875 -0.359375 C 7.578125 -0.046875 6.691406 0.109375 5.640625 0.109375 Z M 5.640625 0.109375 "/></g></g></g><g fill="#231f20" fill-opacity="1"><g transform="translate(217.610825, 187.608042)"><g><path d="M 7.71875 0.109375 C 6.445312 0.109375 5.289062 -0.171875 4.25 -0.734375 C 3.21875 -1.304688 2.410156 -2.085938 1.828125 -3.078125 C 1.242188 -4.078125 0.953125 -5.195312 0.953125 -6.4375 C 0.953125 -7.664062 1.242188 -8.773438 1.828125 -9.765625 C 2.410156 -10.765625 3.21875 -11.546875 4.25 -12.109375 C 5.289062 -12.679688 6.445312 -12.96875 7.71875 -12.96875 C 8.988281 -12.96875 10.132812 -12.6875 11.15625 -12.125 C 12.1875 -11.5625 12.992188 -10.78125 13.578125 -9.78125 C 14.171875 -8.78125 14.46875 -7.664062 14.46875 -6.4375 C 14.46875 -5.195312 14.171875 -4.078125 13.578125 -3.078125 C 12.992188 -2.078125 12.1875 -1.296875 11.15625 -0.734375 C 10.132812 -0.171875 8.988281 0.109375 7.71875 0.109375 Z M 7.71875 -1.109375 C 8.738281 -1.109375 9.65625 -1.335938 10.46875 -1.796875 C 11.289062 -2.253906 11.929688 -2.890625 12.390625 -3.703125 C 12.859375 -4.515625 13.09375 -5.425781 13.09375 -6.4375 C 13.09375 -7.4375 12.859375 -8.34375 12.390625 -9.15625 C 11.929688 -9.96875 11.289062 -10.601562 10.46875 -11.0625 C 9.65625 -11.53125 8.738281 -11.765625 7.71875 -11.765625 C 6.695312 -11.765625 5.773438 -11.53125 4.953125 -11.0625 C 4.128906 -10.601562 3.476562 -9.96875 3 -9.15625 C 2.53125 -8.34375 2.296875 -7.4375 2.296875 -6.4375 C 2.296875 -5.425781 2.53125 -4.515625 3 -3.703125 C 3.476562 -2.890625 4.128906 -2.253906 4.953125 -1.796875 C 5.773438 -1.335938 6.695312 -1.109375 7.71875 -1.109375 Z M 7.71875 -1.109375 "/></g></g></g><g fill="#231f20" fill-opacity="1"><g transform="translate(243.140947, 187.608042)"><g><path d="M 7.71875 0.109375 C 6.445312 0.109375 5.289062 -0.171875 4.25 -0.734375 C 3.21875 -1.304688 2.410156 -2.085938 1.828125 -3.078125 C 1.242188 -4.078125 0.953125 -5.195312 0.953125 -6.4375 C 0.953125 -7.664062 1.242188 -8.773438 1.828125 -9.765625 C 2.410156 -10.765625 3.21875 -11.546875 4.25 -12.109375 C 5.289062 -12.679688 6.445312 -12.96875 7.71875 -12.96875 C 8.988281 -12.96875 10.132812 -12.6875 11.15625 -12.125 C 12.1875 -11.5625 12.992188 -10.78125 13.578125 -9.78125 C 14.171875 -8.78125 14.46875 -7.664062 14.46875 -6.4375 C 14.46875 -5.195312 14.171875 -4.078125 13.578125 -3.078125 C 12.992188 -2.078125 12.1875 -1.296875 11.15625 -0.734375 C 10.132812 -0.171875 8.988281 0.109375 7.71875 0.109375 Z M 7.71875 -1.109375 C 8.738281 -1.109375 9.65625 -1.335938 10.46875 -1.796875 C 11.289062 -2.253906 11.929688 -2.890625 12.390625 -3.703125 C 12.859375 -4.515625 13.09375 -5.425781 13.09375 -6.4375 C 13.09375 -7.4375 12.859375 -8.34375 12.390625 -9.15625 C 11.929688 -9.96875 11.289062 -10.601562 10.46875 -11.0625 C 9.65625 -11.53125 8.738281 -11.765625 7.71875 -11.765625 C 6.695312 -11.765625 5.773438 -11.53125 4.953125 -11.0625 C 4.128906 -10.601562 3.476562 -9.96875 3 -9.15625 C 2.53125 -8.34375 2.296875 -7.4375 2.296875 -6.4375 C 2.296875 -5.425781 2.53125 -4.515625 3 -3.703125 C 3.476562 -2.890625 4.128906 -2.253906 4.953125 -1.796875 C 5.773438 -1.335938 6.695312 -1.109375 7.71875 -1.109375 Z M 7.71875 -1.109375 "/></g></g></g><g fill="#231f20" fill-opacity="1"><g transform="translate(268.671068, 187.608042)"><g><path d="M 6.90625 -12.859375 C 8.550781 -12.859375 9.835938 -12.46875 10.765625 -11.6875 C 11.703125 -10.90625 12.171875 -9.828125 12.171875 -8.453125 C 12.171875 -7.078125 11.703125 -6 10.765625 -5.21875 C 9.835938 -4.445312 8.550781 -4.0625 6.90625 -4.0625 L 3.453125 -4.0625 L 3.453125 0 L 2.09375 0 L 2.09375 -12.859375 Z M 6.875 -5.25 C 8.144531 -5.25 9.113281 -5.523438 9.78125 -6.078125 C 10.457031 -6.640625 10.796875 -7.429688 10.796875 -8.453125 C 10.796875 -9.492188 10.457031 -10.289062 9.78125 -10.84375 C 9.113281 -11.40625 8.144531 -11.6875 6.875 -11.6875 L 3.453125 -11.6875 L 3.453125 -5.25 Z M 6.875 -5.25 "/></g></g></g><g fill="#231f20" fill-opacity="1"><g transform="translate(196.197208, 214.382093)"><g><path d="M 2.09375 -12.859375 L 7.328125 -12.859375 C 8.691406 -12.859375 9.894531 -12.585938 10.9375 -12.046875 C 11.976562 -11.503906 12.785156 -10.742188 13.359375 -9.765625 C 13.929688 -8.796875 14.21875 -7.6875 14.21875 -6.4375 C 14.21875 -5.1875 13.929688 -4.070312 13.359375 -3.09375 C 12.785156 -2.125 11.976562 -1.363281 10.9375 -0.8125 C 9.894531 -0.269531 8.691406 0 7.328125 0 L 2.09375 0 Z M 7.265625 -1.171875 C 8.390625 -1.171875 9.375 -1.394531 10.21875 -1.84375 C 11.0625 -2.289062 11.710938 -2.910156 12.171875 -3.703125 C 12.640625 -4.492188 12.875 -5.40625 12.875 -6.4375 C 12.875 -7.457031 12.640625 -8.363281 12.171875 -9.15625 C 11.710938 -9.945312 11.0625 -10.566406 10.21875 -11.015625 C 9.375 -11.460938 8.390625 -11.6875 7.265625 -11.6875 L 3.453125 -11.6875 L 3.453125 -1.171875 Z M 7.265625 -1.171875 "/></g></g></g><g fill="#231f20" fill-opacity="1"><g transform="translate(221.488421, 214.382093)"><g><path d="M 11.1875 -1.171875 L 11.1875 0 L 2.09375 0 L 2.09375 -12.859375 L 10.921875 -12.859375 L 10.921875 -11.6875 L 3.453125 -11.6875 L 3.453125 -7.109375 L 10.109375 -7.109375 L 10.109375 -5.953125 L 3.453125 -5.953125 L 3.453125 -1.171875 Z M 11.1875 -1.171875 "/></g></g></g><g fill="#231f20" fill-opacity="1"><g transform="translate(243.894411, 214.382093)"><g><path d="M 12.78125 -12.859375 L 7.09375 0 L 5.75 0 L 0.0625 -12.859375 L 1.53125 -12.859375 L 6.453125 -1.6875 L 11.40625 -12.859375 Z M 12.78125 -12.859375 "/></g></g></g></svg>