<svg xmlns="http://www.w3.org/2000/svg" width="1603.643" height="240" viewBox="0 0 1603.643 240"><path d="M28.586 3.57H0v140.425h99.667V120.14H28.586V3.571zm123.497 110.677l-24.53-72.817H98.675l39.018 102.853c-1.61 5.731-3.927 10.446-6.953 14.149-3.027 3.702-7.695 5.557-14.006 5.557-3.41 0-7.243-.421-11.492-1.257l2.415 21.245a71.93 71.93 0 0 0 15.354 1.644c5.154 0 9.77-.55 13.86-1.644s7.535-2.622 10.334-4.586c2.802-1.963 5.279-4.525 7.436-7.677 2.157-3.16 4.426-7.725 6.81-13.717l6.468-17.865 36.22-98.702h-28.104l-23.952 72.817zm125.623 5.554c-3.284 2.932-7.5 4.396-12.65 4.396-6.892 0-12.378-2.51-16.468-7.535-4.09-5.02-6.132-13.615-6.132-25.786 0-10.945 2.011-18.751 6.036-23.419 4.022-4.667 9.417-7.001 16.177-7.001 5.085 0 9.223 1.352 12.409 4.056 3.186 2.704 5.231 6.73 6.132 12.073l26.754-4.83c-3.22-11.01-8.516-19.204-15.887-24.578-7.375-5.377-17.305-8.064-29.795-8.064-15.26 0-27.363 4.715-36.314 14.148-8.948 9.434-13.422 22.614-13.422 39.548 0 16.74 4.457 29.842 13.374 39.306 8.917 9.464 20.878 14.196 35.88 14.196 13.196 0 23.724-3.122 31.581-9.365 7.854-6.247 13.163-15.487 15.935-27.72l-26.656-4.538c-1.352 7.147-3.669 12.185-6.954 15.113zM399.563 0h-30.42l-13.33 28.874h17.192L399.563 0zm5.214 54.226c-8.822-10.075-20.86-15.113-36.12-15.113-13.584 0-24.818 4.813-33.705 14.437-8.883 9.627-13.326 22.936-13.326 39.935 0 14.23 3.38 26.014 10.14 35.345 8.564 11.655 21.761 17.481 39.599 17.481 11.264 0 20.65-2.588 28.15-7.772s12.99-12.732 16.466-22.648l-27.04-4.538c-1.482 5.15-3.673 8.883-6.567 11.2-2.897 2.32-6.471 3.478-10.72 3.478-6.248 0-11.462-2.235-15.647-6.712-4.185-4.474-6.373-10.735-6.567-18.785h67.991c.384-20.793-3.832-36.23-12.654-46.308zm-54.854 29.696c-.065-7.402 1.834-13.261 5.697-17.576 3.865-4.31 8.757-6.47 14.681-6.47 5.537 0 10.235 2.044 14.101 6.134 3.863 4.087 5.89 10.059 6.084 17.912h-40.563zM513.79 54.226c-8.822-10.075-20.861-15.113-36.12-15.113-13.585 0-24.819 4.813-33.705 14.437-8.883 9.627-13.327 22.936-13.327 39.935 0 14.23 3.38 26.014 10.14 35.345 8.564 11.655 21.762 17.481 39.6 17.481 11.263 0 20.65-2.588 28.15-7.772s12.99-12.732 16.465-22.648l-27.04-4.538c-1.481 5.15-3.672 8.883-6.566 11.2-2.898 2.32-6.472 3.478-10.721 3.478-6.247 0-11.462-2.235-15.647-6.712-4.185-4.474-6.372-10.735-6.566-18.785h67.99c.384-20.793-3.831-36.23-12.653-46.308zm-54.855 29.696c-.064-7.402 1.835-13.261 5.697-17.576 3.866-4.31 8.757-6.47 14.682-6.47 5.537 0 10.235 2.044 14.1 6.134 3.863 4.087 5.891 10.059 6.085 17.912h-40.564zm252.892 32.452c-6.828-11.01-12.253-18.67-16.275-22.984-4.026-4.314-9.128-8.275-15.307-11.88 12.426-1.803 21.761-6.165 28.008-13.088 6.244-6.92 9.366-15.694 9.366-26.316 0-8.37-2.059-15.807-6.18-22.308-4.12-6.502-9.61-11.027-16.468-13.571-6.855-2.541-17.851-3.815-32.978-3.815h-60.167v141.583h28.585V84.89h5.796c6.566 0 11.363.53 14.39 1.593 3.023 1.063 5.89 3.026 8.594 5.89 2.704 2.867 7.724 9.804 15.065 20.813l20.668 30.808h34.19l-17.287-27.621zM651.56 62.29h-21.15V26.364h22.308c11.59 0 18.545.163 20.861.482 4.637.775 8.224 2.626 10.769 5.554 2.544 2.932 3.815 6.777 3.815 11.54 0 4.25-.965 7.793-2.898 10.626-1.93 2.833-4.603 4.827-8.014 5.985-3.414 1.159-11.977 1.74-25.691 1.74zM806.253 0c-11.526 0-21.697 1.868-30.519 5.602-6.63 2.768-12.732 7.018-18.3 12.745-5.57 5.73-9.963 12.202-13.183 19.414-4.314 9.787-6.471 21.89-6.471 36.314 0 22.535 6.213 40.223 18.639 53.067s29.167 19.268 50.221 19.268c20.796 0 37.407-6.454 49.834-19.366 12.426-12.905 18.639-30.79 18.639-53.645 0-23.052-6.26-41.046-18.785-53.989C843.806 6.468 827.114 0 806.253 0zM834.6 109.661c-7.31 8.21-16.663 12.314-28.056 12.314-11.397 0-20.8-4.137-28.202-12.409-7.405-8.275-11.105-20.426-11.105-36.46 0-16.288 3.605-28.473 10.816-36.555 7.209-8.078 16.707-12.12 28.49-12.12 11.782 0 21.229 3.995 28.345 11.978 7.114 7.983 10.67 20.086 10.67 36.314 0 16.417-3.655 28.728-10.958 36.938zm163.673 20.909c4.15-4.827 6.998-10.752 8.547-17.77 1.542-7.018 2.316-19.026 2.316-36.021V2.412h-28.589v78.324c0 11.203-.414 19.22-1.25 24.047-.842 4.83-3.322 8.904-7.44 12.22-4.123 3.315-10.238 4.972-18.35 4.972-7.983 0-14.274-1.752-18.88-5.265-4.606-3.506-7.514-8.16-8.737-13.955-.713-3.604-1.067-11.492-1.067-23.66V2.412h-28.582v75.525c0 15.837.93 27.814 2.8 35.926 1.283 5.473 3.96 10.704 8.016 15.694s9.573 9.047 16.564 12.168c6.984 3.122 17.236 4.685 30.756 4.685 11.203 0 20.28-1.434 27.237-4.297 6.95-2.867 12.508-6.713 16.659-11.543zm92.35-23.372L1054.793 2.412h-31.001l50.601 141.583h30.519l50.703-141.583h-30.321l-34.67 104.786zm77.723 36.797h28.589V2.412h-28.59v141.583zm83.423-62.39h71.078V57.753h-71.078V26.364h76.391V2.412h-104.98v141.583h107.684V120.14h-79.095V81.606zm196.169 11.785c-4.022-4.314-9.125-8.275-15.307-11.88 12.426-1.803 21.76-6.165 28.005-13.088 6.243-6.92 9.368-15.694 9.368-26.316 0-8.37-2.058-15.807-6.182-22.308-4.117-6.502-9.607-11.027-16.462-13.571-6.862-2.541-17.854-3.815-32.984-3.815h-60.168v141.583h28.59V84.89h5.795c6.562 0 11.359.53 14.39 1.593 3.022 1.063 5.89 3.026 8.594 5.89 2.703 2.867 7.724 9.804 15.068 20.813l20.668 30.808h34.187l-17.29-27.621c-6.822-11.01-12.25-18.67-16.272-22.984zm-43.991-31.1h-21.15V26.364h22.312c11.583 0 18.54.163 20.857.482 4.634.775 8.228 2.626 10.768 5.554 2.541 2.932 3.819 6.777 3.819 11.54 0 4.25-.972 7.793-2.901 10.626-1.93 2.833-4.607 4.827-8.017 5.985-3.41 1.159-11.971 1.74-25.688 1.74zm120.6 57.851V81.606h71.078V57.752h-71.079V26.364h76.392V2.412h-104.98v141.583h107.684V120.14h-79.096zm-996.77 75.59H544v43.427h6.519V195.73h16.288v-5.816H527.78v5.816zm122.387-3.431c-3.648-2.168-7.749-3.255-12.294-3.255-6.94 0-12.606 2.31-16.995 6.937-4.389 4.62-6.583 11.02-6.583 19.193 0 4.32.94 8.418 2.82 12.297 1.881 3.872 4.646 6.93 8.298 9.165 3.648 2.242 7.793 3.363 12.426 3.363 4.277 0 8.265-1.012 11.958-3.044 3.696-2.024 6.549-5.007 8.567-8.947 2.014-3.94 3.023-8.411 3.023-13.405 0-4.925-.958-9.335-2.874-13.214-1.912-3.886-4.694-6.916-8.346-9.09zm-.251 36.952c-3.17 3.444-7.206 5.17-12.11 5.17-4.814 0-8.816-1.705-12.009-5.122-3.19-3.418-4.786-8.092-4.786-14.023 0-7.412 1.664-12.705 4.99-15.87s7.293-4.757 11.906-4.757c3.248 0 6.176.822 8.785 2.473 2.609 1.644 4.59 3.961 5.945 6.95 1.355 2.99 2.03 6.489 2.03 10.497 0 6.339-1.582 11.23-4.751 14.682zm96.205-10.918c0 6.176-1.019 10.354-3.054 12.528-2.038 2.174-5.455 3.254-10.245 3.254-2.799 0-5.167-.543-7.103-1.644-1.94-1.094-3.305-2.656-4.1-4.688-.795-2.024-1.192-5.177-1.192-9.45v-28.42h-6.516v28.454c0 5.218.625 9.328 1.882 12.345 1.254 3.01 3.346 5.313 6.281 6.902 2.932 1.59 6.706 2.385 11.319 2.385 4.745 0 8.58-.917 11.502-2.738 2.925-1.828 4.946-4.192 6.064-7.106 1.12-2.908 1.681-6.842 1.681-11.788v-28.453h-6.519v28.42zm67.638-28.42h-6.516v49.244h30.767v-5.81h-24.251v-43.433zm109.926 2.386c-3.655-2.168-7.752-3.255-12.297-3.255-6.944 0-12.61 2.31-16.999 6.937-4.389 4.62-6.583 11.02-6.583 19.193 0 4.32.944 8.418 2.826 12.297 1.882 3.872 4.647 6.93 8.296 9.165 3.648 2.242 7.792 3.363 12.426 3.363 4.28 0 8.261-1.012 11.957-3.044 3.696-2.024 6.55-5.007 8.567-8.947 2.018-3.94 3.024-8.411 3.024-13.405 0-4.925-.958-9.335-2.874-13.214-1.916-3.886-4.695-6.916-8.343-9.09zm-.258 36.952c-3.166 3.444-7.202 5.17-12.107 5.17-4.81 0-8.819-1.705-12.005-5.122-3.193-3.418-4.79-8.092-4.79-14.023 0-7.412 1.665-12.705 4.987-15.87 3.33-3.167 7.297-4.757 11.91-4.757 3.247 0 6.176.822 8.784 2.473 2.61 1.644 4.586 3.961 5.945 6.95 1.352 2.99 2.031 6.489 2.031 10.497 0 6.339-1.583 11.23-4.755 14.682zm96.379-.673l-25.865-38.664h-6.685v49.243h6.25v-38.692l25.865 38.692h6.678v-49.243h-6.243v38.664z"/></svg>